<?xml version="1.0" encoding="UTF-8"?>
<svg version="1.1" xmlns="http://www.w3.org/2000/svg" width="150" height="150">
<path d="M0 0 C1.79570284 2.66125745 2.03345719 3.78111062 1.5390625 7.015625 C1.23742188 8.08296875 0.93578125 9.1503125 0.625 10.25 C0.32851563 11.32765625 0.03203125 12.4053125 -0.2734375 13.515625 C-0.51320312 14.33546875 -0.75296875 15.1553125 -1 16 C-0.01 14.02 0.98 12.04 2 10 C3.93719378 9.94593878 5.87481921 9.90717975 7.8125 9.875 C8.89144531 9.85179687 9.97039063 9.82859375 11.08203125 9.8046875 C14 10 14 10 17 12 C17.6875 15.625 17.6875 15.625 18 19 C19.67523352 14.76264463 19.97743646 12.39846406 19 8 C19.66 7.34 20.32 6.68 21 6 C23 6.1875 23 6.1875 25 7 C25.99 8.485 25.99 8.485 27 10 C27.825 10.165 28.65 10.33 29.5 10.5 C30.325 10.665 31.15 10.83 32 11 C32.99 12.485 32.99 12.485 34 14 C35.27253436 10.35206816 36.32829194 6.8063457 37 3 C39.475 2.505 39.475 2.505 42 2 C44 5 44 5 43.75 7.0625 C43 9 43 9 41 11 C41.99 12.98 41.99 12.98 43 15 C43.70125 14.175 44.4025 13.35 45.125 12.5 C48 10 48 10 51.1875 9.5625 C54 10 54 10 56 12 C55.625 14.125 55.625 14.125 55 16 C53.35 16.33 51.7 16.66 50 17 C49.01 19.97 48.02 22.94 47 26 C47.94875 25.175 48.8975 24.35 49.875 23.5 C52.75 21 52.75 21 55 21 C55.061875 20.278125 55.12375 19.55625 55.1875 18.8125 C56.27224543 15.05761199 58.03212965 13.49570916 61 11 C63.625 9.5625 63.625 9.5625 66 9 C66.99 9.66 67.98 10.32 69 11 C69.1875 14.625 69.1875 14.625 69 18 C70.66641006 17.009245 70.66641006 17.009245 72 15 C72.27345479 12.28153765 72.13491285 9.74322801 72 7 C73.875 6.375 73.875 6.375 76 6 C78 8 78 8 78 11 C78.78375 10.814375 79.5675 10.62875 80.375 10.4375 C83 10 83 10 85 11 C84.01 9.515 84.01 9.515 83 8 C83 6.68 83 5.36 83 4 C88.02125926 3.22083908 91.97703996 2.86983399 97 4 C97.5625 5.9375 97.5625 5.9375 98 8 C97.67 8.33 97.34 8.66 97 9 C98.65 9.99 100.3 10.98 102 12 C101.67 14.97 101.34 17.94 101 21 C101.99 19.35 102.98 17.7 104 16 C104.99 16.33 105.98 16.66 107 17 C105.50295694 21.49112919 103.35517211 25.62664268 100 29 C96.6875 29.9375 96.6875 29.9375 94 30 C91.57142857 22.57142857 91.57142857 22.57142857 93 19 C89.93757784 23.84060277 88.46588495 27.29290936 88 33 C88.99 33 89.98 33 91 33 C91.99 33 92.98 33 94 33 C93.67 34.98 93.34 36.96 93 39 C93.99 39.33 94.98 39.66 96 40 C96 40.66 96 41.32 96 42 C94.68 42 93.36 42 92 42 C92.99 44.97 92.99 44.97 94 48 C92.02 48 90.04 48 88 48 C88 48.99 88 49.98 88 51 C86.515 50.505 86.515 50.505 85 50 C85 49.34 85 48.68 85 48 C83.515 47.505 83.515 47.505 82 47 C81.67 47.99 81.34 48.98 81 50 C80.34 49.67 79.68 49.34 79 49 C79 47.68 79 46.36 79 45 C77.02 44.34 75.04 43.68 73 43 C72.54625 43.66 72.0925 44.32 71.625 45 C67.66767967 48.0151012 63.80995855 47.33045517 59 47 C58.67 46.34 58.34 45.68 58 45 C57.505 45.99 57.505 45.99 57 47 C45.12 47 33.24 47 21 47 C21 46.34 21 45.68 21 45 C20.01 45.66 19.02 46.32 18 47 C15.375 46.75 15.375 46.75 13 46 C12.67 45.34 12.34 44.68 12 44 C12.0928125 45.1446875 12.0928125 45.1446875 12.1875 46.3125 C12 49 12 49 10.8359375 50.6484375 C8.30774984 52.50961395 6.54623023 52.36631291 3.4375 52.3125 C1.98150391 52.30669922 1.98150391 52.30669922 0.49609375 52.30078125 C-2 52 -2 52 -4 50 C-4.268125 49.319375 -4.53625 48.63875 -4.8125 47.9375 C-5.4003125 46.9784375 -5.4003125 46.9784375 -6 46 C-6.763125 45.855625 -7.52625 45.71125 -8.3125 45.5625 C-12.22013411 44.74462309 -13.63707154 43.17307536 -16 40 C-17.23533427 32.45073501 -14.24918155 25.14918421 -12 18 C-13.32 18 -14.64 18 -16 18 C-16.226875 18.556875 -16.45375 19.11375 -16.6875 19.6875 C-18.97604059 23.71969057 -22.17587898 26.45058599 -26 29 C-32.81918819 29.64944649 -32.81918819 29.64944649 -36.5 27.625 C-38.8453015 23.52072238 -38.7393915 19.60812682 -38 15 C-36.20895728 11.81592406 -34.79514401 10.47278833 -31.6875 8.625 C-28.22718021 7.82027447 -25.45870348 8.32182285 -22 9 C-21.67 9.99 -21.34 10.98 -21 12 C-19.68 12 -18.36 12 -17 12 C-15.07807356 9.86274187 -15.07807356 9.86274187 -13.4375 7.125 C-9.54256568 1.03536995 -7.32256418 -0.27632318 0 0 Z M-8 6 C-10.475 9.465 -10.475 9.465 -13 13 C-12.67 13.66 -12.34 14.32 -12 15 C-8.82111379 14.32494081 -8.82111379 14.32494081 -7.75 11.625 C-6.71132345 8.9248898 -6.71132345 8.9248898 -8 6 Z M88 8 C89 10 89 10 89 10 Z M85 11 C85 12.98 85 14.96 85 17 C85.66 16.34 86.32 15.68 87 15 C86.6814823 12.89179203 86.6814823 12.89179203 86 11 C85.67 11 85.34 11 85 11 Z M-30 15 C-30.33 17.97 -30.66 20.94 -31 24 C-28.81416116 25.04097782 -28.81416116 25.04097782 -26 25 C-23.70485976 23.2531134 -21.85561893 21.19996058 -20 19 C-20.33 18.01 -20.66 17.02 -21 16 C-21.33 16.33 -21.66 16.66 -22 17 C-24.9375 17.1875 -24.9375 17.1875 -28 17 C-28.66 16.34 -29.32 15.68 -30 15 Z M8 15 C6.02 19.455 6.02 19.455 4 24 C4.99 24.33 5.98 24.66 7 25 C7.69710731 23.71349294 8.38242876 22.42059335 9.0625 21.125 C9.44535156 20.40570313 9.82820313 19.68640625 10.22265625 18.9453125 C10.60744141 17.98238281 10.60744141 17.98238281 11 17 C10.67 16.34 10.34 15.68 10 15 C9.34 15 8.68 15 8 15 Z M24 15 C23.70867187 15.59167969 23.41734375 16.18335937 23.1171875 16.79296875 C19.65800822 23.4611351 16.24918506 26.83387662 10 31 C10.45375 31.4125 10.9075 31.825 11.375 32.25 C13.05950374 34.06408095 13.99265971 35.75285627 15 38 C15.99 37.34 16.98 36.68 18 36 C21 37 21 37 23 39 C23.99 36.03 24.98 33.06 26 30 C25.01 29.01 24.02 28.02 23 27 C23.25 23.625 23.25 23.625 24 20 C24.185625 19.030625 24.37125 18.06125 24.5625 17.0625 C24.706875 16.381875 24.85125 15.70125 25 15 C24.67 15 24.34 15 24 15 Z M76 15 C77 18 77 18 77 18 Z M32 16 C33 19 33 19 33 19 Z M41 16 C40.34 17.98 39.68 19.96 39 22 C39.66 21.67 40.32 21.34 41 21 C41.65555119 18.47266765 41.65555119 18.47266765 42 16 C41.67 16 41.34 16 41 16 Z M84 17 C85 19 85 19 85 19 Z M75 18 C74.67 18.99 74.34 19.98 74 21 C73.0925 21.04125 72.185 21.0825 71.25 21.125 C67.72958783 21.68351485 67.72958783 21.68351485 66.0625 25 C64 28 64 28 60.25 28.875 C59.1775 28.91625 58.105 28.9575 57 29 C56.34 28.01 55.68 27.02 55 26 C54.484375 26.28875 53.96875 26.5775 53.4375 26.875 C50.37643275 28.28780027 47.25055082 29.1248517 44 30 C46.77260299 31.93798263 46.77260299 31.93798263 49 33 C48.01 33.99 47.02 34.98 46 36 C46.33 36.66 46.66 37.32 47 38 C49.31 37.34 51.62 36.68 54 36 C54.33 36.99 54.66 37.98 55 39 C55 38.01 55 37.02 55 36 C57.97 36 60.94 36 64 36 C64.33 36.99 64.66 37.98 65 39 C65.103125 38.360625 65.20625 37.72125 65.3125 37.0625 C65.539375 36.381875 65.76625 35.70125 66 35 C66.99 34.67 67.98 34.34 69 34 C69.33 35.65 69.66 37.3 70 39 C71.46109063 38.74445946 72.91888096 38.46999628 74.375 38.1875 C75.18710938 38.03667969 75.99921875 37.88585937 76.8359375 37.73046875 C79.35820641 37.12455058 79.35820641 37.12455058 81 34 C80.505 32.515 80.505 32.515 80 31 C80.66 31 81.32 31 82 31 C82.495 32.485 82.495 32.485 83 34 C83.99 33.67 84.98 33.34 86 33 C86 32.01 86 31.02 86 30 C83.24075815 28.19588033 82.11027897 27.9872755 78.75 28.375 C77.8425 28.58125 76.935 28.7875 76 29 C74.71428571 21.57142857 74.71428571 21.57142857 76 18 C75.67 18 75.34 18 75 18 Z M31 19 C30.34 20.32 29.68 21.64 29 23 C29.99 22.67 30.98 22.34 32 22 C31.67 21.01 31.34 20.02 31 19 Z M62 19 C60.70366379 20.06645115 60.70366379 20.06645115 60.9375 22.5625 C60.958125 23.366875 60.97875 24.17125 61 25 C61.66 25 62.32 25 63 25 C63.66 23.68 64.32 22.36 65 21 C64.01 20.34 63.02 19.68 62 19 Z M83 19 C84 21 84 21 84 21 Z M-5 21 C-7.64472478 27.28275689 -7.64472478 27.28275689 -8 34 C-5.2946129 29.94191935 -3 25.95110601 -3 21 C-3.66 21 -4.32 21 -5 21 Z M2 28 C1.16180842 29.62249941 0.3295884 31.24808497 -0.5 32.875 C-0.9640625 33.77992187 -1.428125 34.68484375 -1.90625 35.6171875 C-3.13905589 37.86596859 -3.13905589 37.86596859 -3 40 C-4.98 40.99 -4.98 40.99 -7 42 C-3.2827945 42.95585284 -0.71626787 42.90395705 3 42 C3.66 42 4.32 42 5 42 C4.90460937 41.38511719 4.80921875 40.77023438 4.7109375 40.13671875 C4.60007812 39.32847656 4.48921875 38.52023438 4.375 37.6875 C4.25898437 36.88699219 4.14296875 36.08648437 4.0234375 35.26171875 C4 33 4 33 6 30 C4.68 29.34 3.36 28.68 2 28 Z M40 26 C39.484375 26.515625 38.96875 27.03125 38.4375 27.5625 C35.0289729 29.57265701 32.76893143 28.79727396 29 28 C28.67 28.66 28.34 29.32 28 30 C28.66 30 29.32 30 30 30 C29.67 31.98 29.34 33.96 29 36 C29.99 36 30.98 36 32 36 C32.66 35.01 33.32 34.02 34 33 C35.485 32.7834375 35.485 32.7834375 37 32.5625 C37.99 32.376875 38.98 32.19125 40 32 C41.43637698 30.04836882 41.43637698 30.04836882 42 28 C41.34 27.34 40.68 26.68 40 26 Z M9 34 C9 34.99 9 35.98 9 37 C9.66 36.67 10.32 36.34 11 36 C10.34 35.34 9.68 34.68 9 34 Z M84 36 C83.34 36.66 82.68 37.32 82 38 C84.31 38.66 86.62 39.32 89 40 C89 39.01 89 38.02 89 37 C86.60280568 36.32041397 86.60280568 36.32041397 84 36 Z M11 40 C11.33 40.99 11.66 41.98 12 43 C12.33 42.01 12.66 41.02 13 40 C12.34 40 11.68 40 11 40 Z M17 42 C18 44 18 44 18 44 Z M83 43 C83.66 43.66 84.32 44.32 85 45 C85.99 45 86.98 45 88 45 C88.33 43.68 88.66 42.36 89 41 C86.91571791 41 84.90182036 42.21976601 83 43 Z M0 44 C-0.33 45.65 -0.66 47.3 -1 49 C0.83700789 49.77242269 0.83700789 49.77242269 3 50 C4.77190909 48.64555699 4.77190909 48.64555699 6 47 C4.68 47 3.36 47 2 47 C2 46.01 2 45.02 2 44 C1.34 44 0.68 44 0 44 Z " fill="#E9893B" transform="translate(41,49)"/>
<path d="M0 0 C1.67542976 0.28604898 3.34385343 0.61781233 5 1 C5.6875 3.3125 5.6875 3.3125 6 6 C4.5625 7.8125 4.5625 7.8125 3 9 C3.66 10.32 4.32 11.64 5 13 C5.70125 12.175 6.4025 11.35 7.125 10.5 C10 8 10 8 13.1875 7.5625 C16 8 16 8 18 10 C17.625 12.125 17.625 12.125 17 14 C15.35 14.33 13.7 14.66 12 15 C11.01 17.97 10.02 20.94 9 24 C9.94875 23.175 10.8975 22.35 11.875 21.5 C14.75 19 14.75 19 17 19 C17.061875 18.278125 17.12375 17.55625 17.1875 16.8125 C18.27224543 13.05761199 20.03212965 11.49570916 23 9 C25.625 7.5625 25.625 7.5625 28 7 C28.99 7.66 29.98 8.32 31 9 C31.1875 12.625 31.1875 12.625 31 16 C32.66641006 15.009245 32.66641006 15.009245 34 13 C34.27345479 10.28153765 34.13491285 7.74322801 34 5 C35.875 4.375 35.875 4.375 38 4 C40 6 40 6 40 9 C40.78375 8.814375 41.5675 8.62875 42.375 8.4375 C45 8 45 8 47 9 C47.15393948 15.46545831 46.17369074 20.91366593 44 27 C42.02 27.33 40.04 27.66 38 28 C36.01637931 25.08291076 36.0123809 23.87619096 36.375 20.25 C36.58125 19.1775 36.7875 18.105 37 17 C36.608125 17.433125 36.21625 17.86625 35.8125 18.3125 C34 20 34 20 31.625 21.375 C28.83030752 22.94525516 28.83030752 22.94525516 26.5 25.6875 C24 28 24 28 21.1875 28.3125 C20.465625 28.209375 19.74375 28.10625 19 28 C18.34 26.68 17.68 25.36 17 24 C16.154375 24.680625 15.30875 25.36125 14.4375 26.0625 C10.30015454 28.39445835 8.51307273 28.21505804 4 27 C3.34 26.34 2.68 25.68 2 25 C1.484375 25.515625 0.96875 26.03125 0.4375 26.5625 C-2.98098094 28.57852722 -5.16775794 27.67232317 -9 27 C-11.81237541 27.35974895 -11.81237541 27.35974895 -14 28 C-16.56687367 24.1496895 -15.83288724 22.41430237 -15 18 C-15.66 18.99 -16.32 19.98 -17 21 C-18.27484648 22.28837988 -19.59115237 23.53653212 -20.9375 24.75 C-21.62714844 25.38421875 -22.31679688 26.0184375 -23.02734375 26.671875 C-24.00380859 27.32929687 -24.00380859 27.32929687 -25 28 C-25.99 27.67 -26.98 27.34 -28 27 C-27.23286356 25.89326166 -26.46110997 24.78972306 -25.6875 23.6875 C-25.25824219 23.07261719 -24.82898437 22.45773438 -24.38671875 21.82421875 C-23 20 -23 20 -21.41015625 18.44921875 C-19.24755337 16.22670998 -18.71510066 13.97958609 -18 11 C-18.30404678 9.32774271 -18.63128912 7.65919896 -19 6 C-18.34 5.34 -17.68 4.68 -17 4 C-15 4.1875 -15 4.1875 -13 5 C-12.01 6.485 -12.01 6.485 -11 8 C-10.175 8.165 -9.35 8.33 -8.5 8.5 C-7.675 8.665 -6.85 8.83 -6 9 C-5.01 10.485 -5.01 10.485 -4 12 C-2.97781926 9.06974854 -2.04669682 6.23348409 -1.4375 3.1875 C-1 1 -1 1 0 0 Z M38 13 C39 16 39 16 39 16 Z M-6 14 C-5 17 -5 17 -5 17 Z M3 14 C2.34 15.98 1.68 17.96 1 20 C1.66 19.67 2.32 19.34 3 19 C3.65555119 16.47266765 3.65555119 16.47266765 4 14 C3.67 14 3.34 14 3 14 Z M-7 17 C-7.66 18.32 -8.32 19.64 -9 21 C-8.01 20.67 -7.02 20.34 -6 20 C-6.33 19.01 -6.66 18.02 -7 17 Z M24 17 C22.70366379 18.06645115 22.70366379 18.06645115 22.9375 20.5625 C22.958125 21.366875 22.97875 22.17125 23 23 C23.66 23 24.32 23 25 23 C25.66 21.68 26.32 20.36 27 19 C26.01 18.34 25.02 17.68 24 17 Z " fill="#F28737" transform="translate(79,51)"/>
<path d="M0 0 C1.79570284 2.66125745 2.03345719 3.78111062 1.5390625 7.015625 C1.23742188 8.08296875 0.93578125 9.1503125 0.625 10.25 C0.32851563 11.32765625 0.03203125 12.4053125 -0.2734375 13.515625 C-0.51320312 14.33546875 -0.75296875 15.1553125 -1 16 C-0.01 14.02 0.98 12.04 2 10 C3.93719378 9.94593878 5.87481921 9.90717975 7.8125 9.875 C8.89144531 9.85179687 9.97039063 9.82859375 11.08203125 9.8046875 C14 10 14 10 17 12 C17.95063395 15.64409679 18.23912545 18.42030426 17 22 C16.34 22 15.68 22 15 22 C14.731875 22.556875 14.46375 23.11375 14.1875 23.6875 C12.89877353 26.19712523 11.47073522 28.59334236 10 31 C4.25 30.125 4.25 30.125 2 29 C1.35242375 30.43671568 0.70700547 31.87440416 0.0625 33.3125 C-0.29714844 34.11300781 -0.65679687 34.91351563 -1.02734375 35.73828125 C-2.07846041 38.09489608 -2.07846041 38.09489608 -3 41 C-4.65 40.67 -6.3 40.34 -8 40 C-7.5464821 32.97047248 -5.87940913 27.4150557 -3 21 C-3.66 21 -4.32 21 -5 21 C-5.144375 21.804375 -5.28875 22.60875 -5.4375 23.4375 C-6 26 -6 26 -7 27 C-9.33297433 27.04092937 -11.66705225 27.04241723 -14 27 C-13.34 24.03 -12.68 21.06 -12 18 C-13.32 18 -14.64 18 -16 18 C-16.226875 18.556875 -16.45375 19.11375 -16.6875 19.6875 C-18.97604059 23.71969057 -22.17587898 26.45058599 -26 29 C-32.81918819 29.64944649 -32.81918819 29.64944649 -36.5 27.625 C-38.8453015 23.52072238 -38.7393915 19.60812682 -38 15 C-36.20895728 11.81592406 -34.79514401 10.47278833 -31.6875 8.625 C-28.22718021 7.82027447 -25.45870348 8.32182285 -22 9 C-21.67 9.99 -21.34 10.98 -21 12 C-19.68 12 -18.36 12 -17 12 C-15.07807356 9.86274187 -15.07807356 9.86274187 -13.4375 7.125 C-9.54256568 1.03536995 -7.32256418 -0.27632318 0 0 Z M-8 6 C-10.475 9.465 -10.475 9.465 -13 13 C-12.67 13.66 -12.34 14.32 -12 15 C-8.82111379 14.32494081 -8.82111379 14.32494081 -7.75 11.625 C-6.71132345 8.9248898 -6.71132345 8.9248898 -8 6 Z M-30 15 C-30.33 17.97 -30.66 20.94 -31 24 C-28.81416116 25.04097782 -28.81416116 25.04097782 -26 25 C-23.70485976 23.2531134 -21.85561893 21.19996058 -20 19 C-20.33 18.01 -20.66 17.02 -21 16 C-21.33 16.33 -21.66 16.66 -22 17 C-24.9375 17.1875 -24.9375 17.1875 -28 17 C-28.66 16.34 -29.32 15.68 -30 15 Z M8 15 C6.02 19.455 6.02 19.455 4 24 C4.99 24.33 5.98 24.66 7 25 C7.69710731 23.71349294 8.38242876 22.42059335 9.0625 21.125 C9.44535156 20.40570313 9.82820313 19.68640625 10.22265625 18.9453125 C10.60744141 17.98238281 10.60744141 17.98238281 11 17 C10.67 16.34 10.34 15.68 10 15 C9.34 15 8.68 15 8 15 Z " fill="#0670B4" transform="translate(41,49)"/>
<path d="M0 0 C1.67542976 0.28604898 3.34385343 0.61781233 5 1 C5.6875 3.3125 5.6875 3.3125 6 6 C5 7 4 8 3 9 C3.31595508 10.67004829 3.65179959 12.33637583 4 14 C3.34561559 16.00405227 2.67939174 18.00428677 2 20 C2.27640014 22.2875976 2.27640014 22.2875976 3 24 C0.9375 26.0625 0.9375 26.0625 -2 28 C-5.5 27.6875 -5.5 27.6875 -9 27 C-11.81237541 27.35974895 -11.81237541 27.35974895 -14 28 C-16.56687367 24.1496895 -15.83288724 22.41430237 -15 18 C-15.66 18.99 -16.32 19.98 -17 21 C-18.27484648 22.28837988 -19.59115237 23.53653212 -20.9375 24.75 C-21.62714844 25.38421875 -22.31679688 26.0184375 -23.02734375 26.671875 C-24.00380859 27.32929687 -24.00380859 27.32929687 -25 28 C-25.99 27.67 -26.98 27.34 -28 27 C-27.23286356 25.89326166 -26.46110997 24.78972306 -25.6875 23.6875 C-25.25824219 23.07261719 -24.82898437 22.45773438 -24.38671875 21.82421875 C-23 20 -23 20 -21.41015625 18.44921875 C-19.24755337 16.22670998 -18.71510066 13.97958609 -18 11 C-18.30404678 9.32774271 -18.63128912 7.65919896 -19 6 C-18.34 5.34 -17.68 4.68 -17 4 C-15 4.1875 -15 4.1875 -13 5 C-12.01 6.485 -12.01 6.485 -11 8 C-10.175 8.165 -9.35 8.33 -8.5 8.5 C-7.675 8.665 -6.85 8.83 -6 9 C-5.01 10.485 -5.01 10.485 -4 12 C-2.97781926 9.06974854 -2.04669682 6.23348409 -1.4375 3.1875 C-1 1 -1 1 0 0 Z M-6 14 C-5 17 -5 17 -5 17 Z M-7 17 C-7.66 18.32 -8.32 19.64 -9 21 C-8.01 20.67 -7.02 20.34 -6 20 C-6.33 19.01 -6.66 18.02 -7 17 Z " fill="#F18A3B" transform="translate(79,51)"/>
<path d="M0 0 C2.31 0 4.62 0 7 0 C6.814375 1.175625 6.62875 2.35125 6.4375 3.5625 C5.91769004 7.61268594 6.2497646 10.99874453 7 15 C9.69482469 15.07699499 12.03994488 14.99163944 14.6875 14.4375 C17 14 17 14 19 15 C18.4740625 13.63875 18.4740625 13.63875 17.9375 12.25 C17.03440991 9.11928768 16.80427133 7.93497038 18 5 C19 4 19 4 21.875 3.75 C25 4 25 4 26.8125 5.3125 C28 7 28 7 29 10 C29.99 9.34 30.98 8.68 32 8 C33.32 8.66 34.64 9.32 36 10 C36.32728047 13.60008519 36.40422813 15.41611492 34.3125 18.4375 C32 20 32 20 29.3125 19.875 C27 19 27 19 26 17 C26.061875 17.763125 26.12375 18.52625 26.1875 19.3125 C26 22 26 22 24.8359375 23.6484375 C22.30774984 25.50961395 20.54623023 25.36631291 17.4375 25.3125 C15.98150391 25.30669922 15.98150391 25.30669922 14.49609375 25.30078125 C12 25 12 25 10 23 C9.5978125 21.9790625 9.5978125 21.9790625 9.1875 20.9375 C8.5996875 19.9784375 8.5996875 19.9784375 8 19 C7.236875 18.855625 6.47375 18.71125 5.6875 18.5625 C1.77986589 17.74462309 0.36292846 16.17307536 -2 13 C-2.92470583 8.32929199 -2.12340702 4.24681404 0 0 Z M23 7 C23 7.99 23 8.98 23 10 C23.66 9.67 24.32 9.34 25 9 C24.34 8.34 23.68 7.68 23 7 Z M25 13 C25.33 13.99 25.66 14.98 26 16 C26.33 15.01 26.66 14.02 27 13 C26.34 13 25.68 13 25 13 Z M31 15 C32 17 32 17 32 17 Z M14 17 C13.67 18.65 13.34 20.3 13 22 C14.83700789 22.77242269 14.83700789 22.77242269 17 23 C18.77190909 21.64555699 18.77190909 21.64555699 20 20 C18.68 20 17.36 20 16 20 C16 19.01 16 18.02 16 17 C15.34 17 14.68 17 14 17 Z " fill="#ED8638" transform="translate(27,76)"/>
<path d="M0 0 C0.495 0.33 0.99 0.66 1.5 1 C1.17 2.32 0.84 3.64 0.5 5 C2.15 5.99 3.8 6.98 5.5 8 C5.17 10.97 4.84 13.94 4.5 17 C5.49 15.35 6.48 13.7 7.5 12 C8.49 12.33 9.48 12.66 10.5 13 C9.00295694 17.49112919 6.85517211 21.62664268 3.5 25 C0.1875 25.9375 0.1875 25.9375 -2.5 26 C-4.625 19.5 -4.625 19.5 -3.5 15 C-6.47 20.445 -6.47 20.445 -9.5 26 C-10.82 25.67 -12.14 25.34 -13.5 25 C-13.38512252 23.41590006 -13.25765492 21.83271037 -13.125 20.25 C-13.05539063 19.36828125 -12.98578125 18.4865625 -12.9140625 17.578125 C-12.49976142 14.99851448 -11.70232024 13.29037037 -10.5 11 C-10.87074627 7.94134325 -11.73445537 6.64831694 -13.5 4 C-13.5 2.68 -13.5 1.36 -13.5 0 C-8.97258828 -1.50913724 -4.43573202 -1.77429281 0 0 Z M-8.5 4 C-7.5 6 -7.5 6 -7.5 6 Z " fill="#0B73B4" transform="translate(137.5,53)"/>
<path d="M0 0 C1.93719378 -0.05406122 3.87481921 -0.09282025 5.8125 -0.125 C6.89144531 -0.14820313 7.97039063 -0.17140625 9.08203125 -0.1953125 C12 0 12 0 15 2 C15.95063395 5.64409679 16.23912545 8.42030426 15 12 C14.34 12 13.68 12 13 12 C12.731875 12.556875 12.46375 13.11375 12.1875 13.6875 C10.89877353 16.19712523 9.47073522 18.59334236 8 21 C2.25 20.125 2.25 20.125 0 19 C-0.64757625 20.43671568 -1.29299453 21.87440416 -1.9375 23.3125 C-2.29714844 24.11300781 -2.65679687 24.91351563 -3.02734375 25.73828125 C-4.07846041 28.09489608 -4.07846041 28.09489608 -5 31 C-6.65 30.67 -8.3 30.34 -10 30 C-9.56699236 23.18012971 -8.09212176 18.08356979 -5 12 C-4.34 12 -3.68 12 -3 12 C-3.0928125 10.700625 -3.0928125 10.700625 -3.1875 9.375 C-2.97544498 5.55800967 -1.87955693 3.28922464 0 0 Z M6 5 C4.02 9.455 4.02 9.455 2 14 C2.99 14.33 3.98 14.66 5 15 C5.69710731 13.71349294 6.38242876 12.42059335 7.0625 11.125 C7.44535156 10.40570313 7.82820313 9.68640625 8.22265625 8.9453125 C8.60744141 7.98238281 8.60744141 7.98238281 9 7 C8.67 6.34 8.34 5.68 8 5 C7.34 5 6.68 5 6 5 Z " fill="#076CB0" transform="translate(43,59)"/>
<path d="M0 0 C0.66 0.66 1.32 1.32 2 2 C1.67 2.66 1.34 3.32 1 4 C1.99 4 2.98 4 4 4 C4.99 4 5.98 4 7 4 C6.67 5.98 6.34 7.96 6 10 C6.99 10.33 7.98 10.66 9 11 C9 11.66 9 12.32 9 13 C7.68 13 6.36 13 5 13 C5.66 14.98 6.32 16.96 7 19 C5.02 19 3.04 19 1 19 C1 19.99 1 20.98 1 22 C0.01 21.67 -0.98 21.34 -2 21 C-2 20.34 -2 19.68 -2 19 C-2.99 18.67 -3.98 18.34 -5 18 C-5.33 18.99 -5.66 19.98 -6 21 C-6.66 20.67 -7.32 20.34 -8 20 C-8 18.68 -8 17.36 -8 16 C-9.98 15.34 -11.96 14.68 -14 14 C-14.556875 14.66 -15.11375 15.32 -15.6875 16 C-18 18 -18 18 -20.75 18.25 C-21.4925 18.1675 -22.235 18.085 -23 18 C-22.125 13.25 -22.125 13.25 -21 11 C-21.66 10.67 -22.32 10.34 -23 10 C-22.34 8.35 -21.68 6.7 -21 5 C-20.01 5 -19.02 5 -18 5 C-17.67 6.32 -17.34 7.64 -17 9 C-14.03 8.34 -11.06 7.68 -8 7 C-7.67 5.35 -7.34 3.7 -7 2 C-6.34 2 -5.68 2 -5 2 C-4.34 2.66 -3.68 3.32 -3 4 C-2.34 4 -1.68 4 -1 4 C-0.67 2.68 -0.34 1.36 0 0 Z M-3 7 C-3.66 7.66 -4.32 8.32 -5 9 C-2.69 9.66 -0.38 10.32 2 11 C2 10.01 2 9.02 2 8 C-0.39719432 7.32041397 -0.39719432 7.32041397 -3 7 Z M-4 14 C-3.34 14.66 -2.68 15.32 -2 16 C-1.01 16 -0.02 16 1 16 C1.33 14.68 1.66 13.36 2 12 C-0.08428209 12 -2.09817964 13.21976601 -4 14 Z " fill="#F08B3C" transform="translate(128,78)"/>
<path d="M0 0 C0.33 0.99 0.66 1.98 1 3 C1.639375 3.12375 2.27875 3.2475 2.9375 3.375 C5 4 5 4 6.5 6.1875 C7 9 7 9 5.5625 12 C2.24053573 15.8891289 -0.92996531 19.340086 -6.08984375 20.44921875 C-9.33457497 20.62444632 -11.65825678 20.18795877 -14.5 18.625 C-16.8453015 14.52072238 -16.7393915 10.60812682 -16 6 C-14.20895728 2.81592406 -12.79514401 1.47278833 -9.6875 -0.375 C-6.22718021 -1.17972553 -3.45870348 -0.67817715 0 0 Z M-8 6 C-8.33 8.97 -8.66 11.94 -9 15 C-6.81416116 16.04097782 -6.81416116 16.04097782 -4 16 C-1.70485976 14.2531134 0.14438107 12.19996058 2 10 C1.67 9.01 1.34 8.02 1 7 C0.67 7.33 0.34 7.66 0 8 C-2.9375 8.1875 -2.9375 8.1875 -6 8 C-6.66 7.34 -7.32 6.68 -8 6 Z " fill="#F08636" transform="translate(19,58)"/>
<path d="M0 0 C1.67542976 0.28604898 3.34385343 0.61781233 5 1 C5.6875 3.3125 5.6875 3.3125 6 6 C5 7 4 8 3 9 C3.31595508 10.67004829 3.65179959 12.33637583 4 14 C3.34561559 16.00405227 2.67939174 18.00428677 2 20 C2.27640014 22.2875976 2.27640014 22.2875976 3 24 C0.75 26.0625 0.75 26.0625 -2 28 C-4.3125 27.75 -4.3125 27.75 -6 27 C-7.87672089 20.64802162 -5.88745221 16.77948732 -3.2109375 10.88671875 C-1.7858991 7.48961107 -1.32352465 4.63965229 -1 1 C-0.67 0.67 -0.34 0.34 0 0 Z " fill="#F28939" transform="translate(79,51)"/>
<path d="M0 0 C1.47668858 0.0133035 2.95331108 0.03716415 4.4296875 0.0703125 C5.18378906 0.07933594 5.93789062 0.08835937 6.71484375 0.09765625 C8.57826004 0.1212438 10.44151343 0.15711531 12.3046875 0.1953125 C12.3046875 1.5153125 12.3046875 2.8353125 12.3046875 4.1953125 C12.9646875 4.1953125 13.6246875 4.1953125 14.3046875 4.1953125 C13.6446875 6.1753125 12.9846875 8.1553125 12.3046875 10.1953125 C10.6546875 10.5253125 9.0046875 10.8553125 7.3046875 11.1953125 C6.9746875 10.5353125 6.6446875 9.8753125 6.3046875 9.1953125 C5.9746875 9.8553125 5.6446875 10.5153125 5.3046875 11.1953125 C1.6746875 11.1953125 -1.9553125 11.1953125 -5.6953125 11.1953125 C-5.890625 4.359375 -5.890625 4.359375 -5.6953125 2.1953125 C-3.6953125 0.1953125 -3.6953125 0.1953125 0 0 Z " fill="#0A6EB2" transform="translate(92.6953125,84.8046875)"/>
<path d="M0 0 C0.99 0.33 1.98 0.66 3 1 C3 2.65 3 4.3 3 6 C5.31 6.66 7.62 7.32 10 8 C9.01 11.3 8.02 14.6 7 18 C2.71 18 -1.58 18 -6 18 C-7.31092543 14.0672237 -6.31783226 12.74746797 -4.6875 9 C-4.23761719 7.948125 -3.78773437 6.89625 -3.32421875 5.8125 C-2 3 -2 3 0 0 Z " fill="#0A6DAF" transform="translate(68,78)"/>
<path d="M0 0 C0.99 0.66 1.98 1.32 3 2 C2.67 4.97 2.34 7.94 2 11 C2.99 9.35 3.98 7.7 5 6 C5.99 6.33 6.98 6.66 8 7 C6.50295694 11.49112919 4.35517211 15.62664268 1 19 C-2.3125 19.9375 -2.3125 19.9375 -5 20 C-7.21538462 13.72307692 -7.21538462 13.72307692 -6.125 10.0625 C-5.75375 9.381875 -5.3825 8.70125 -5 8 C-4.34 8 -3.68 8 -3 8 C-2.31292445 5.50935112 -2 3.62113708 -2 1 C-1.34 0.67 -0.68 0.34 0 0 Z " fill="#066FB3" transform="translate(140,59)"/>
<path d="M0 0 C0.495 0.33 0.99 0.66 1.5 1 C0.92655063 3.86724686 0.6385485 4.8614515 -1.5 7 C-4.49116554 7.8059687 -7.40446265 8.14173706 -10.5 8 C-12.5625 6.3125 -12.5625 6.3125 -13.5 4 C-13.5 2.68 -13.5 1.36 -13.5 0 C-8.97258828 -1.50913724 -4.43573202 -1.77429281 0 0 Z M-8.5 4 C-7.5 6 -7.5 6 -7.5 6 Z " fill="#D3C6B9" transform="translate(137.5,53)"/>
<path d="M0 0 C0.66 0.66 1.32 1.32 2 2 C1.67 2.66 1.34 3.32 1 4 C1.99 4 2.98 4 4 4 C4.99 4 5.98 4 7 4 C6.9375 7.3125 6.9375 7.3125 6 11 C3.71858658 12.59040839 1.70125887 13.16506544 -1 14 C-1 12.35 -1 10.7 -1 9 C-0.01 9 0.98 9 2 9 C-1.47147842 8.25042843 -1.47147842 8.25042843 -5 8 C-5.33 8.66 -5.66 9.32 -6 10 C-6.33 7.36 -6.66 4.72 -7 2 C-6.34 2 -5.68 2 -5 2 C-4.34 2.66 -3.68 3.32 -3 4 C-2.34 4 -1.68 4 -1 4 C-0.67 2.68 -0.34 1.36 0 0 Z " fill="#F4913F" transform="translate(128,78)"/>
<path d="M0 0 C1.65 0.33 3.3 0.66 5 1 C5.625 3.375 5.625 3.375 6 6 C4 8 4 8 1.375 8.125 C0.59125 8.08375 -0.1925 8.0425 -1 8 C-1.625 5.6875 -1.625 5.6875 -2 3 C-1.34 2.01 -0.68 1.02 0 0 Z " fill="#0870B2" transform="translate(79,51)"/>
<path d="M0 0 C1.32 0.33 2.64 0.66 4 1 C4 3.97 4 6.94 4 10 C2.35 10 0.7 10 -1 10 C-2.31223496 6.06329512 -1.24296256 3.87511856 0 0 Z " fill="#DE823F" transform="translate(83,85)"/>
<path d="M0 0 C2.125 0.375 2.125 0.375 4 1 C3.67 2.32 3.34 3.64 3 5 C1.68 5.33 0.36 5.66 -1 6 C-1.625 4.125 -1.625 4.125 -2 2 C-1.34 1.34 -0.68 0.68 0 0 Z " fill="#C48757" transform="translate(62,55)"/>
<path d="M0 0 C2.97 0.495 2.97 0.495 6 1 C6.33 2.32 6.66 3.64 7 5 C6.01 5.66 5.02 6.32 4 7 C4 6.01 4 5.02 4 4 C3.01 4.495 3.01 4.495 2 5 C2 4.01 2 3.02 2 2 C1.34 2 0.68 2 0 2 C0 1.34 0 0.68 0 0 Z " fill="#A77D62" transform="translate(132,52)"/>
<path d="M0 0 C2.9375 0.375 2.9375 0.375 6 1 C6.33 1.66 6.66 2.32 7 3 C5.6875 4.5 5.6875 4.5 4 6 C3.01 6 2.02 6 1 6 C1.33 4.35 1.66 2.7 2 1 C1.34 0.67 0.68 0.34 0 0 Z " fill="#E38944" transform="translate(19,64)"/>
<path d="M0 0 C-1.93254772 2.0245738 -3.63158688 3.42105792 -6 5 C-6.33 3.35 -6.66 1.7 -7 0 C-3.86650268 -1.04449911 -3.01031744 -0.93423645 0 0 Z " fill="#A07456" transform="translate(131,53)"/>
<path d="M0 0 C1.32 0.66 2.64 1.32 4 2 C4 3.65 4 5.3 4 7 C1 5 1 5 -1 2 C-0.67 1.34 -0.34 0.68 0 0 Z " fill="#E48138" transform="translate(115,86)"/>
<path d="M0 0 C0.33 0.66 0.66 1.32 1 2 C0.67 2.99 0.34 3.98 0 5 C-2.31 5 -4.62 5 -7 5 C-5 2 -5 2 -2.9375 1.375 C-2.298125 1.25125 -1.65875 1.1275 -1 1 C-0.67 0.67 -0.34 0.34 0 0 Z " fill="#ABB1B4" transform="translate(136,55)"/>
<path d="M0 0 C2.0625 0.4375 2.0625 0.4375 4 1 C4 1.99 4 2.98 4 4 C2.68 4.33 1.36 4.66 0 5 C-0.5625 3.0625 -0.5625 3.0625 -1 1 C-0.67 0.67 -0.34 0.34 0 0 Z " fill="#B98862" transform="translate(114,55)"/>
<path d="M0 0 C0.33 0.99 0.66 1.98 1 3 C-1.3125 5.0625 -1.3125 5.0625 -4 7 C-4.99 6.67 -5.98 6.34 -7 6 C-4.69 4.02 -2.38 2.04 0 0 Z " fill="#F68939" transform="translate(58,72)"/>
<path d="M0 0 C0 0.66 0 1.32 0 2 C-1.32 2 -2.64 2 -4 2 C-4.33 2.99 -4.66 3.98 -5 5 C-5.66 3.68 -6.32 2.36 -7 1 C-4.53721199 -0.231394 -2.7204945 -0.07159196 0 0 Z " fill="#E1833B" transform="translate(137,89)"/>
<path d="M0 0 C0.66 1.32 1.32 2.64 2 4 C0.68 4.99 -0.64 5.98 -2 7 C-2.33 5.35 -2.66 3.7 -3 2 C-2.01 2 -1.02 2 0 2 C0 1.34 0 0.68 0 0 Z " fill="#F6933C" transform="translate(80,71)"/>
</svg>
